<?xml version="1.0" encoding="UTF-8" standalone="no"?>
<svg
        xmlns="http://www.w3.org/2000/svg"
        xmlns:xlink="http://www.w3.org/1999/xlink"
        width="499.04999"
        height="196.47"
        viewBox="0 0 499.04999 196.47"
        version="1.1"
        xml:space="preserve"
        style="clip-rule:evenodd;fill-rule:evenodd;stroke-linejoin:round;stroke-miterlimit:2"
        id="svg6">
    <defs
            id="defs10"><linearGradient
   id="linearGradient18"><stop
     style="stop-color:#ff7413;stop-opacity:1;"
     offset="0"
     id="stop14" /><stop
            style="stop-color:#ffa100;stop-opacity:1;"
            offset="1"
            id="stop16"/></linearGradient>
        <linearGradient
                xlink:href="#linearGradient18"
                id="linearGradient20"
                x1="1889.2"
                y1="2095.51"
                x2="1890.385"
                y2="1929.1329"
                gradientUnits="userSpaceOnUse"/></defs>

    <g
            transform="translate(-1663.34,-1914.04)"
            id="g4">
        <path
                d="m 1913.65,1980.21 h 18.83 l -1.69,7.99 c 6.46,-7.38 13.38,-8.77 18.76,-8.77 8.14,0 14.14,3.7 15.83,13.23 7.38,-11.37 15.68,-13.07 21.37,-13.07 9.84,0 17.06,5.07 17.06,17.37 0,12.46 -7.38,31.06 -7.38,39.67 0,3.84 1.54,6.46 6.15,6.46 6.74,0 9.51,-5.49 12.87,-13.42 l 10.48,-49.46 h 22.14 l -1.69,7.99 c 6.46,-7.38 13.37,-8.77 18.75,-8.77 8.15,0 14.15,3.7 15.84,13.23 7.38,-11.37 15.68,-13.07 21.37,-13.07 9.84,0 17.06,5.07 17.06,17.37 0,12.46 -7.38,31.06 -7.38,39.67 0,3.84 1.54,6.46 6.15,6.46 2.61,0 4.15,-0.31 5.08,-0.93 -1.39,11.07 -8.77,15.84 -16.92,15.84 -11.83,0 -15.52,-8.61 -15.52,-17.38 0,-10.45 6.91,-29.36 6.91,-39.2 0,-5.07 -1.84,-7.84 -5.53,-7.84 -5.54,0 -9.69,6.46 -11.99,14.15 l -10.45,49.34 h -22.14 l 11.22,-53.03 c 0.31,-1.23 0.46,-2.46 0.46,-3.85 0,-3.38 -1.23,-6.76 -4.61,-6.76 -6,0 -10.15,6.61 -12.45,14.3 l -10.45,49.34 h -22.14 l 1.56,-7.35 c -6.27,7.03 -12.77,8.28 -17.84,8.28 -13.37,0 -18.14,-8.61 -18.14,-17.38 0,-10.45 6.92,-29.36 6.92,-39.2 0,-5.07 -1.85,-7.84 -5.54,-7.84 -5.53,0 -9.68,6.46 -11.99,14.15 l -10.45,49.34 h -22.14 l 11.23,-53.03 c 0.3,-1.23 0.45,-2.46 0.45,-3.85 0,-3.38 -1.23,-6.76 -4.61,-6.76 -5.99,0 -10.15,6.61 -12.45,14.3 l -10.45,49.34 h -18.84 l -8.15,38.44 h -4.68 l 32.59,-153.74 h 4.69 z m -208.91,64.03 c -8.42,11.82 -18.67,13.76 -24.95,13.76 -9.23,0 -16.45,-5.54 -16.45,-18.45 0,-2.92 0.46,-6.3 1.23,-9.99 l 9.22,-43.2 h -5.07 l 1.23,-6.15 h 5.07 l 4.61,-21.22 22.75,-3.07 -5.22,24.29 h 9.22 l -1.23,6.15 h -9.22 l -9.84,46.12 c -0.46,2 -0.62,3.53 -0.62,4.92 0,4.3 2,5.69 6.31,5.69 5.97,0 11.49,-5.8 13.81,-13.45 l 0.02,-0.09 10.45,-49.35 h 22.14 l -11.07,52.28 c -0.46,2 -0.62,3.53 -0.62,4.92 0,4.3 2,5.68 6.31,5.68 5.96,0 11.46,-5.77 13.79,-13.39 l 10.49,-49.48 h 22.14 l -1.69,7.99 c 6.46,-7.38 13.22,-8.61 17.98,-8.61 9.84,0 17.07,5.07 17.07,17.37 0,12.46 -7.38,31.06 -7.38,39.67 0,3.84 1.54,6.46 6.15,6.46 6.75,0 9.52,-5.51 12.89,-13.48 l 0.01,-0.06 10.45,-49.35 h 22.14 l -11.07,52.28 c -0.3,1.22 -0.46,2.61 -0.46,3.84 0,3.53 1.08,6.76 4.61,6.76 5.99,0 9.99,-5.84 12.3,-13.53 l 10.45,-49.35 h 22.3 l -18.76,89.17 c -4.61,21.98 -17.83,26.13 -27.98,26.13 -9.38,0 -18.14,-6.6 -18.14,-16.6 0,-14.3 11.99,-18.75 26.6,-23.05 l 1.53,-6.77 c -6.61,7.53 -13.53,8.92 -18.75,8.92 -7.8,0 -14.17,-3.96 -15.95,-12.98 -7.28,11.2 -15.35,12.98 -21.4,12.98 -13.37,0 -18.13,-8.61 -18.13,-17.38 0,-10.45 6.91,-29.36 6.91,-39.2 0,-5.07 -1.84,-7.84 -5.53,-7.84 -5.53,0 -9.69,6.46 -11.99,14.15 l -10.46,49.34 h -22.13 l 1.91,-9.04 c -7.73,8.46 -16.35,9.97 -21.89,9.97 -8.02,0 -14.53,-4.18 -16.09,-13.76 z m 139.97,37.58 c 3.08,0 7.08,-2.92 9.08,-11.99 l 1.84,-9.07 c -9.69,3.23 -17.07,7.69 -17.07,15.99 0,2.15 2.77,5.07 6.15,5.07 z m -113.43,-134.36 c 6.77,0 12.3,5.54 12.3,12.3 0,6.77 -5.53,12.14 -12.3,12.14 -6.77,0 -12.15,-5.37 -12.15,-12.14 0,-6.76 5.38,-12.3 12.15,-12.3 z m 411.52,-18.42 c -10.8,0 -19.58,8.79 -19.58,19.58 0,10.8 8.78,19.59 19.58,19.59 10.8,0 19.59,-8.79 19.59,-19.59 0,-10.79 -8.79,-19.58 -19.59,-19.58 z m 0,34.89 c -8.44,0 -15.31,-6.86 -15.31,-15.31 0,-7.05 4.81,-12.99 11.31,-14.76 l -2.67,12.53 c -0.28,1.35 -0.45,2.59 -0.45,3.65 0,4.72 2.64,6.74 6.01,6.74 3.03,0 8.59,-1.23 11.79,-10.39 h -2.35 c -0.85,2.81 -2.87,4.95 -5.06,4.95 -1.57,0 -2.3,-0.51 -2.3,-2.08 0,-0.51 0.05,-1.07 0.22,-1.8 l 2.9,-13.57 c 6.46,1.79 11.23,7.71 11.23,14.73 0,8.45 -6.88,15.31 -15.32,15.31 z"
                style="fill:url(#linearGradient20);fill-opacity:1;fill-rule:nonzero"
                id="path2"/>
    </g>
</svg>
